# xmcd
#
# Track frame offsets:
#	150
#	28341
#	40952
#	61794
#	75273
#	102043
#	109128
#	127862
#	143447
#	157705
#	171936
#	184240
#
# Disc length: 2588
#
# Revision: 1
# Processed by: cddbd v1.5.1PL0 Copyright (c) Steve Scherf et al.
# Submitted via: dBpowerAMP V4.0
# Normalized: r0:TSWAP
#
DISCID=8a0a1a0c
DTITLE=Various Artist - It feels like woman
DYEAR=1900
DGENRE=Retro
TTITLE0=Shirley Bassey - This is my life (dance)
TTITLE1=Cher - You don't have to say you love me
TTITLE2=Tasmin Archer - Sleeping Satellite (single)
TTITLE3=Cilla Black - You are my world
TTITLE4=Tina Turner and Ike - I've been loving you
TTITLE5=Julie London - Is wonderful
TTITLE6=Mina - Non Credere
TTITLE7=Nina Simone - Wild is the wind
TTITLE8=Liza Minnelli - It amazes me
TTITLE9=Sarah Vaughan - I cant' give you anything but love
TTITLE10=Peggy Lee - Cheek to Cheek
TTITLE11=Billie Holiday - Blue Moon
EXTD=
EXTT0=
EXTT1=
EXTT2=
EXTT3=
EXTT4=
EXTT5=
EXTT6=
EXTT7=
EXTT8=
EXTT9=
EXTT10=
EXTT11=
PLAYORDER=
